<svg width="100%" height="auto" viewBox="0 0 108 110" fill="none" xmlns="http://www.w3.org/2000/svg">
<g filter="url(#filter0_d_402_366)">
<path d="M104 50.7984C104 78.8536 81.6142 101.597 54 101.597C26.3858 101.597 4 78.8536 4 50.7984C4 22.7432 26.3858 0 54 0C81.6142 0 104 22.7432 104 50.7984Z" fill="#070707"/>
<path d="M104 50.7984C104 78.8536 81.6142 101.597 54 101.597C26.3858 101.597 4 78.8536 4 50.7984C4 22.7432 26.3858 0 54 0C81.6142 0 104 22.7432 104 50.7984Z" fill="#2B2424" fill-opacity="0.36"/>
</g>
<path d="M39.5428 16.66H40.9828C42.4228 16.66 43.8328 16.84 45.2128 17.2C46.5928 17.5 47.8228 18.07 48.9028 18.91C49.9828 19.69 50.8528 20.77 51.5128 22.15C52.1728 23.53 52.5028 25.3 52.5028 27.46V71.29C52.5028 73.51 52.1428 75.31 51.4228 76.69C50.7628 78.07 49.8628 79.15 48.7228 79.93C47.6428 80.71 46.3528 81.25 44.8528 81.55C43.4128 81.85 41.9428 82 40.4428 82H39.5428V16.66ZM70.3228 82H69.4228C67.8628 82 66.3028 81.85 64.7428 81.55C63.2428 81.25 61.8628 80.71 60.6028 79.93C59.4028 79.15 58.4128 78.07 57.6328 76.69C56.8528 75.31 56.4628 73.51 56.4628 71.29V49.51H57.9028C59.4028 49.51 60.9028 49.69 62.4028 50.05C63.9028 50.35 65.2228 50.92 66.3628 51.76C67.5628 52.54 68.5228 53.62 69.2428 55C69.9628 56.38 70.3228 58.15 70.3228 60.31V82ZM71.2228 36.37C71.2228 39.97 70.4728 42.91 68.9728 45.19C67.4728 47.41 65.0728 48.52 61.7728 48.52C60.5728 48.52 59.4928 48.34 58.5328 47.98C57.5728 47.56 56.7628 47.05 56.1028 46.45C55.4428 45.85 54.9328 45.16 54.5728 44.38C54.2128 43.6 54.0328 42.85 54.0328 42.13C54.0328 41.41 54.0628 40.84 54.1228 40.42C54.1828 40 54.2428 39.64 54.3028 39.34C54.6028 39.7 54.8728 39.97 55.1128 40.15C55.4128 40.33 55.8028 40.42 56.2828 40.42C57.1228 40.36 57.6328 40.03 57.8128 39.43C57.9928 38.77 58.0828 37.99 58.0828 37.09V16.75H59.2528C60.5128 16.75 61.8328 16.87 63.2128 17.11C64.5928 17.35 65.8828 17.86 67.0828 18.64C68.2828 19.36 69.2728 20.47 70.0528 21.97C70.8328 23.41 71.2228 25.36 71.2228 27.82V36.37Z" fill="#693B3B"/>
<defs>
<filter id="filter0_d_402_366" x="0" y="0" width="108" height="109.597" filterUnits="userSpaceOnUse" color-interpolation-filters="sRGB">
<feFlood flood-opacity="0" result="BackgroundImageFix"/>
<feColorMatrix in="SourceAlpha" type="matrix" values="0 0 0 0 0 0 0 0 0 0 0 0 0 0 0 0 0 0 127 0" result="hardAlpha"/>
<feOffset dy="4"/>
<feGaussianBlur stdDeviation="2"/>
<feComposite in2="hardAlpha" operator="out"/>
<feColorMatrix type="matrix" values="0 0 0 0 0 0 0 0 0 0 0 0 0 0 0 0 0 0 0.25 0"/>
<feBlend mode="normal" in2="BackgroundImageFix" result="effect1_dropShadow_402_366"/>
<feBlend mode="normal" in="SourceGraphic" in2="effect1_dropShadow_402_366" result="shape"/>
</filter>
</defs>
</svg>
